<svg width="32" height="32" viewBox="0 0 32 32" fill="none" xmlns="http://www.w3.org/2000/svg">
<g clip-path="url(#clip0_2_6091)">
<path d="M0 8.42105C0 3.77023 3.77023 0 8.42105 0H23.5789C28.2298 0 32 3.77023 32 8.42105V23.5789C32 28.2298 28.2298 32 23.5789 32H8.42105C3.77023 32 0 28.2298 0 23.5789V8.42105Z" fill="#3C50E0"/>
<path d="M8.57246 24.954C8.53679 24.9335 8.45017 24.7136 8.38393 24.4629C8.31259 24.2174 8.22087 23.9719 8.18011 23.9259C8.13425 23.8747 8.03234 23.6036 7.9559 23.3172C7.87438 23.0308 7.77756 22.7699 7.7317 22.7341C7.69094 22.6983 7.60941 22.4784 7.54827 22.238C7.48712 21.9976 7.3954 21.7418 7.33935 21.6651C7.26292 21.5577 6.98267 20.6728 6.98267 20.5296C6.98267 20.5142 6.95719 20.504 6.92662 20.5142C6.89095 20.5194 6.79923 20.2841 6.70751 19.9465C6.61579 19.6294 6.50879 19.3378 6.46803 19.2969C6.23873 19.0565 6.05529 18.9133 5.98905 18.9133C5.86166 18.9133 5.41326 18.4376 5.30116 18.187C5.24511 18.0489 5.17377 17.9415 5.15339 17.9415C5.026 17.9415 4.99543 17.3942 5.00053 15.1538C5.00562 12.8777 5.0311 12.4481 5.16358 12.3406C5.19925 12.3151 5.28078 12.1821 5.34702 12.0491C5.40817 11.9161 5.56103 11.7269 5.69861 11.6143C5.83109 11.5069 5.98905 11.3688 6.05529 11.3023C6.34064 11.0261 6.44764 11.0159 10.3712 10.9852C12.3635 10.9699 14.0144 10.9443 14.0399 10.9238C14.0705 10.9085 14.2183 10.888 14.3711 10.8778C14.524 10.8727 14.738 10.8215 14.8399 10.7704C14.9469 10.7192 15.0947 10.6783 15.1711 10.6783C15.2475 10.6783 15.4972 10.6425 15.7214 10.6016C15.9456 10.5607 16.2463 10.5095 16.3838 10.4942C16.5265 10.4737 16.6692 10.4226 16.7048 10.3816C16.7609 10.3049 17.622 10.0748 17.8717 10.0696C17.9329 10.0645 18.0093 10.0236 18.0348 9.97245C18.0653 9.91107 18.2437 9.83435 18.5239 9.75251C18.7991 9.67579 18.9876 9.59395 19.0131 9.5428C19.0386 9.49165 19.0946 9.45073 19.1303 9.45073C19.2526 9.45073 20.0475 9.13361 20.1086 9.062C20.1698 8.99039 20.7201 8.73465 20.822 8.73465C20.8577 8.73465 20.9137 8.68861 20.9443 8.62724C20.98 8.57097 21.1277 8.46356 21.2806 8.39707C21.4335 8.33057 21.5557 8.25385 21.5557 8.23339C21.5557 8.17713 22.0449 7.91627 22.1468 7.91627C22.1876 7.91627 22.2182 7.88558 22.2182 7.84466C22.2182 7.76793 22.3812 7.64518 22.692 7.49173C22.7939 7.43547 22.8806 7.36897 22.8806 7.33317C22.8857 7.22576 23.329 6.98536 23.5022 7.0007C23.7264 7.02116 23.971 7.27179 23.9302 7.43547C23.9099 7.50196 23.8589 7.55822 23.8181 7.55822C23.757 7.55822 23.7468 7.5838 23.7774 7.65029C23.8028 7.69633 23.8283 8.59143 23.8334 9.63999C23.8487 11.42 23.8793 11.8547 23.9914 11.7831C24.0169 11.7678 24.2564 11.8138 24.5264 11.8803C24.929 11.9775 25.0512 12.0338 25.199 12.177C25.3009 12.2742 25.4436 12.3662 25.52 12.3867C25.6016 12.402 25.6984 12.4839 25.7595 12.581C25.8156 12.6731 25.9277 12.7805 26.0092 12.8214C26.0958 12.8624 26.1875 12.9698 26.2385 13.0874C26.2844 13.1948 26.3557 13.2971 26.4015 13.3125C26.4933 13.3432 26.6767 13.7421 26.7226 14.0132C26.7429 14.1257 26.7837 14.2025 26.8194 14.1922C26.855 14.1871 26.8805 14.228 26.8805 14.2843C26.8805 14.3406 26.9009 14.4224 26.9315 14.4633C27.0079 14.5861 27.0283 15.4812 26.9519 15.742C26.9162 15.8699 26.8958 16.0131 26.9009 16.0592C26.906 16.1052 26.8652 16.1717 26.8092 16.2024C26.748 16.2331 26.7022 16.2996 26.7022 16.3507C26.7022 16.5093 26.4474 17.0157 26.3353 17.077C26.2793 17.1077 26.2028 17.21 26.1621 17.3123C26.1111 17.43 26.0296 17.5118 25.9328 17.5476C25.8461 17.5834 25.7697 17.655 25.7493 17.7215C25.734 17.788 25.6729 17.8545 25.6016 17.8698C25.5353 17.8852 25.4793 17.921 25.4793 17.9415C25.4793 17.9619 25.3875 18.0182 25.2805 18.0591C25.1684 18.1051 25.0665 18.1665 25.0461 18.1921C25.0054 18.2637 24.7404 18.3762 24.4449 18.4427C24.0729 18.5348 23.7366 18.7087 23.7927 18.7803C23.8232 18.8161 23.8385 19.6703 23.8334 21.0257C23.8232 23.1382 23.8181 23.2098 23.7213 23.2814C23.6653 23.3274 23.5786 23.3632 23.5277 23.3632C23.4003 23.3632 22.9519 23.128 22.8704 23.0154C22.8347 22.9592 22.6767 22.8517 22.5239 22.775C22.371 22.6983 22.2233 22.6011 22.1927 22.5653C22.1672 22.5295 21.9889 22.4374 21.7952 22.3607C21.6067 22.2891 21.4233 22.1868 21.3876 22.1408C21.357 22.0947 21.1583 22.0027 20.9596 21.9362C20.7558 21.8748 20.557 21.7878 20.5163 21.752C20.4449 21.6753 20.0781 21.5423 19.5328 21.394C19.3545 21.3429 19.2118 21.2764 19.2118 21.2406C19.2118 21.1996 18.9876 21.1229 18.6411 21.036C18.2539 20.9439 18.045 20.8672 17.994 20.8007C17.9583 20.7444 17.8819 20.7035 17.8309 20.7035C17.7545 20.7035 17.4946 20.6472 16.7252 20.4733C16.659 20.458 16.6182 20.4273 16.6335 20.4017C16.6539 20.3659 16.3278 20.2687 16.0017 20.2125C15.9609 20.2022 15.7775 20.1715 15.594 20.1409C15.0692 20.0488 15.0284 20.0386 15.059 19.9874C15.0743 19.9567 15.0488 19.9363 14.9979 19.9363C14.9469 19.9363 14.8042 19.9056 14.6768 19.8646C14.5495 19.8237 14.1163 19.7419 13.7087 19.6805C12.8272 19.5475 12.7915 19.5373 12.8068 19.4606C12.8119 19.4197 12.6947 19.3839 12.4858 19.3583C11.9915 19.2969 9.99919 19.2406 9.882 19.2816C9.73933 19.3378 9.7648 19.6805 9.91257 19.6805C9.97372 19.6805 10.0858 20.0283 10.1928 20.5194C10.2132 20.6268 10.254 20.7291 10.2794 20.7495C10.3406 20.7904 10.4833 21.1434 10.5495 21.4196C10.6463 21.793 10.7584 22.105 10.8298 22.1868C10.8909 22.2584 10.9979 22.5909 11.1151 23.0921C11.1457 23.2098 11.1966 23.3019 11.2272 23.2967C11.2629 23.2916 11.3393 23.5013 11.4157 23.798C11.5126 24.1663 11.5737 24.3146 11.6348 24.3248C11.6807 24.3351 11.7215 24.3913 11.7266 24.4527C11.7266 24.5141 11.7418 24.6317 11.752 24.7085C11.803 25 11.7928 25 10.147 25C9.3164 25 8.60813 24.9795 8.57246 24.954ZM10.8756 24.4067C10.9368 24.2481 10.9062 24.0333 10.8145 23.9821C10.7635 23.9566 10.6973 23.8185 10.6565 23.6599C10.5495 23.2149 10.4374 22.8824 10.3712 22.8262C10.3355 22.8006 10.2336 22.5039 10.1419 22.1715C10.0501 21.8441 9.93295 21.5219 9.882 21.4605C9.82595 21.4042 9.78518 21.3275 9.78518 21.3019C9.78518 21.1434 9.55589 20.4273 9.47945 20.3557C9.4336 20.3045 9.36735 20.1562 9.33168 20.013C9.29602 19.8749 9.22978 19.6498 9.18392 19.5168L9.10239 19.2713L8.23616 19.2662C7.75718 19.2611 7.32916 19.2662 7.2884 19.2713C7.16611 19.2867 7.11515 19.3634 7.1712 19.435C7.20177 19.4708 7.24254 19.5731 7.25783 19.6652C7.27821 19.7521 7.32407 19.834 7.35464 19.8493C7.39031 19.8646 7.45145 19.9976 7.48712 20.146C7.60432 20.6319 7.71132 20.9337 7.77756 20.9695C7.80814 20.9899 7.854 21.0718 7.86928 21.1485C7.88967 21.2303 7.93552 21.4093 7.97629 21.5474C8.01705 21.6907 8.05782 21.8646 8.0782 21.9413C8.09348 22.0231 8.13425 22.0794 8.16482 22.0692C8.20049 22.0641 8.26673 22.2073 8.31769 22.417C8.36864 22.6165 8.43488 22.8722 8.47055 22.995C8.50112 23.1126 8.55208 23.2098 8.58775 23.2098C8.62341 23.2098 8.69985 23.399 8.76609 23.6599C8.90367 24.1867 8.94952 24.2839 9.04634 24.2839C9.08201 24.2839 9.13296 24.3299 9.14825 24.3862C9.17882 24.4834 9.22468 24.4885 10.0145 24.4885C10.7228 24.4885 10.8501 24.4783 10.8756 24.4067ZM23.2118 22.2277C23.2271 22.1612 23.2322 18.944 23.2271 15.0771L23.2118 8.04414L23.0334 8.03902C22.8959 8.03902 22.8194 8.07483 22.692 8.20782C22.6054 8.29988 22.4984 8.37661 22.4627 8.37661C22.4271 8.37661 22.315 8.45333 22.2182 8.54028C22.0347 8.70908 21.6882 8.90344 21.5608 8.90855C21.5201 8.91367 21.464 8.9597 21.4335 9.01597C21.3621 9.14896 21.2959 9.19499 21.1838 9.19499C21.1328 9.19499 21.0564 9.23079 21.0156 9.27171C20.9749 9.31263 20.9086 9.33309 20.8679 9.31775C20.8271 9.29729 20.7914 9.31263 20.7914 9.34332C20.7914 9.37401 20.7456 9.39958 20.6844 9.39958C20.6131 9.39958 20.5876 9.42516 20.6029 9.47119C20.6284 9.53769 20.5672 9.58372 20.3838 9.62975C20.3685 9.63487 20.3175 9.65533 20.2717 9.67579C20.2258 9.69625 20.1545 9.72182 20.1137 9.72694C20.073 9.73205 20.0016 9.76786 19.9558 9.80366C19.9099 9.83946 19.8742 9.85481 19.8742 9.83435C19.8742 9.81389 19.8386 9.82412 19.7978 9.85992C19.757 9.89573 19.7214 9.90596 19.7214 9.88038C19.7214 9.85481 19.6908 9.87015 19.6551 9.91619C19.5685 10.0338 19.3902 10.1157 19.2424 10.1157C19.1711 10.1157 19.1099 10.1361 19.1099 10.1617C19.1099 10.1873 19.0182 10.2231 18.9061 10.2435C18.7838 10.264 18.6819 10.3151 18.6513 10.3714C18.6157 10.4328 18.5137 10.4788 18.366 10.5044C18.2335 10.5249 18.0653 10.5709 17.994 10.6067C17.9227 10.6476 17.7902 10.6783 17.6985 10.6783C17.5864 10.6783 17.515 10.709 17.4794 10.7755C17.4488 10.8369 17.3469 10.888 17.2144 10.9085C17.0921 10.9289 16.9138 10.9596 16.8169 10.9852C16.7201 11.0108 16.5112 11.0568 16.3482 11.0875C16.1902 11.1182 16.0475 11.1745 16.0373 11.2103C16.0221 11.2461 15.8896 11.2921 15.7367 11.3074C15.5889 11.3279 15.2934 11.3637 15.0845 11.3944C14.2845 11.5018 12.4399 11.6553 12.3788 11.6194C12.2361 11.5376 12.2259 11.824 12.2259 15.1743C12.2259 18.3711 12.2412 18.8417 12.3584 18.7649C12.3839 18.7496 12.6387 18.7905 13.2654 18.9133C13.403 18.944 13.5813 18.9644 13.6628 18.9644C13.7444 18.9644 13.8565 19.0105 13.9125 19.0667C13.9686 19.123 14.0756 19.169 14.152 19.169C14.2284 19.169 14.5189 19.2151 14.8042 19.2713C15.0845 19.3225 15.4004 19.3839 15.5074 19.3992C15.6144 19.4145 15.6908 19.4452 15.6756 19.4657C15.6654 19.4861 15.7469 19.4964 15.859 19.4861C16.0017 19.4708 16.0577 19.481 16.0322 19.522C15.9813 19.6038 16.1443 19.6601 16.8271 19.7879C17.2806 19.8749 17.4284 19.926 17.4437 19.9925C17.459 20.0488 17.5354 20.0846 17.6628 20.0999C18.152 20.1613 18.7023 20.3199 18.7278 20.4017C18.743 20.4477 18.8297 20.4989 18.9214 20.5142C19.3698 20.591 19.7519 20.7188 19.8335 20.8211C19.8844 20.8825 19.9252 20.9183 19.9252 20.8979C19.9252 20.8774 20.0118 20.8876 20.1188 20.9285C20.2207 20.9695 20.3736 21.0155 20.45 21.0308C20.5366 21.0513 20.5774 21.0871 20.557 21.1229C20.5316 21.1587 20.5417 21.1638 20.5825 21.1383C20.6844 21.0769 21.087 21.215 21.1124 21.3224C21.1277 21.3787 21.1838 21.4196 21.2398 21.4196C21.3876 21.4196 21.5099 21.4758 21.4742 21.527C21.4589 21.5526 21.4844 21.5577 21.5303 21.5423C21.6424 21.4963 21.9022 21.6191 21.9379 21.7316C21.9583 21.7827 22.0092 21.8288 22.0602 21.8288C22.1978 21.8288 22.6615 22.0692 22.692 22.1612C22.7277 22.2533 22.9009 22.33 23.0691 22.3351C23.1455 22.3403 23.1914 22.3045 23.2118 22.2277ZM11.5278 18.5041C11.538 18.4785 11.5329 18.0693 11.5176 17.5988L11.4922 16.7395H8.61322H5.73428L5.73937 17.2765C5.73937 17.7317 5.75975 17.8443 5.85657 18.0335C5.98905 18.2739 6.1623 18.4223 6.42217 18.4939C6.66165 18.5655 11.5024 18.5706 11.5278 18.5041ZM24.4449 17.8392C24.4958 17.7829 24.613 17.7113 24.7149 17.6806C25.0818 17.563 25.306 17.4351 25.3774 17.3021C25.413 17.2305 25.4996 17.1589 25.5608 17.1435C25.627 17.1282 25.7086 17.031 25.7646 16.9031C25.8156 16.7906 25.9124 16.6474 25.9735 16.5911C26.2334 16.3456 26.3914 15.1027 26.2436 14.4224C26.1519 14.0081 26.0398 13.7063 25.9582 13.6756C25.9175 13.6603 25.8359 13.5426 25.7799 13.4148C25.7137 13.2664 25.627 13.159 25.5506 13.1335C25.4844 13.1079 25.413 13.0465 25.3926 13.0056C25.3621 12.9186 25.0105 12.7243 24.7048 12.6271C24.5977 12.5913 24.5162 12.535 24.5264 12.5043C24.5315 12.4736 24.4449 12.4327 24.3328 12.4123C24.2207 12.3918 24.0729 12.3611 24.0067 12.3355C23.92 12.31 23.8946 12.3151 23.92 12.356C23.9404 12.3918 23.9302 12.4174 23.9048 12.4174C23.8742 12.4174 23.8487 12.4532 23.8487 12.4941C23.8487 12.535 23.8181 12.5708 23.7876 12.5708C23.7366 12.5708 23.7366 12.581 23.7876 12.6117C23.8334 12.6424 23.8487 13.2102 23.8385 15.2408C23.8283 16.9082 23.8436 17.8443 23.8742 17.8801C23.9659 17.9824 24.3481 17.9517 24.4449 17.8392ZM8.65908 16.0489C11.0438 16.0489 11.4667 16.0387 11.5024 15.9773C11.5227 15.9364 11.5329 15.517 11.5176 15.0413L11.4922 14.182L8.60303 14.1667L5.7088 14.1564V15.0464C5.7088 15.9262 5.72918 16.1257 5.8158 16.0745C5.83618 16.0592 7.12025 16.0489 8.65908 16.0489ZM11.4871 13.5682C11.5227 13.5171 11.538 13.1948 11.5278 12.5913L11.5126 11.6962L11.3801 11.645C11.2985 11.6143 10.3915 11.599 8.99538 11.6092C6.9521 11.6246 6.73808 11.6348 6.65656 11.7115C6.6107 11.7627 6.4935 11.8138 6.40178 11.8292C6.1572 11.8752 5.83618 12.2128 5.76485 12.489C5.7037 12.7345 5.68842 13.5529 5.74447 13.6091C5.75975 13.6296 7.04891 13.6449 8.60303 13.6449C11.0692 13.6449 11.4361 13.6347 11.4871 13.5682Z" fill="white" stroke="white" stroke-width="0.5"/>
</g>
<defs>
<clipPath id="clip0_2_6091">
<rect width="32" height="32" fill="white"/>
</clipPath>
</defs>
</svg>
