<svg width="460" height="345" viewBox="0 0 460 345" fill="none" xmlns="http://www.w3.org/2000/svg">
<g clip-path="url(#clip0_4_6173)">
<rect width="460" height="345" fill="white"/>
<path fill-rule="evenodd" clip-rule="evenodd" d="M0 172.251V344.501H229.751H459.501V172.251V0H229.751H0V172.251ZM266.491 101.953L266.769 113.375L271.717 115.644C280.226 119.546 284.399 130.727 280.285 138.599C278.251 142.492 273.45 146.762 270.103 147.654L267.21 148.426L266.928 160.088C266.711 169.062 266.337 171.751 265.301 171.751C264.562 171.751 261.39 170.208 258.256 168.32C251.252 164.105 238.932 159.574 223.757 155.635C210.867 152.288 198.784 150.822 198.784 152.604C198.784 153.216 200.783 159.219 203.225 165.943C206.485 174.915 207.383 178.51 206.6 179.453C205.371 180.932 194.089 181.214 191.887 179.82C191.115 179.331 188.316 172.976 185.664 165.695C181.803 155.09 180.145 151.818 177.327 149.239C173.548 145.778 173.653 146.308 173.653 130.811C173.653 116.95 173.677 116.811 176.589 113.9L179.367 111.123L199.315 110.547C211.032 110.209 221.951 109.368 225.779 108.508C236.351 106.133 247.953 101.171 256.356 95.4279C260.677 92.4742 264.663 90.1645 265.212 90.2953C265.785 90.4311 266.33 95.3999 266.491 101.953ZM259.054 99.3342C254.754 102.344 241.023 108.692 234.413 110.724C230.661 111.878 223.581 113.356 218.681 114.008L209.772 115.193V131.452V147.709L213.518 148.664C215.579 149.189 218.837 149.932 220.76 150.314C228.514 151.857 247.364 158.044 254.227 161.3C258.241 163.204 261.792 164.762 262.119 164.762C262.447 164.762 262.715 149.708 262.715 131.31C262.715 112.912 262.365 97.8584 261.939 97.8584C261.511 97.8584 260.213 98.5224 259.054 99.3342ZM179.46 116.66C178.551 117.665 177.807 119.462 177.807 120.654C177.807 122.772 178.119 122.822 191.292 122.822H204.778V118.828V114.834H192.946C182.752 114.834 180.885 115.086 179.46 116.66ZM266.71 131.31C266.71 139.693 267.07 143.792 267.805 143.792C272.364 143.792 277.698 136.82 277.698 130.86C277.698 125.088 272.905 118.828 268.486 118.828C266.879 118.828 266.71 120.014 266.71 131.31ZM177.807 131.31V134.805H191.292H204.778V131.31V127.815H191.292H177.807V131.31ZM177.807 141.604C177.807 142.598 178.444 144.282 179.222 145.349C180.463 147.046 182.138 147.328 192.708 147.62L204.778 147.953V143.876V139.798H191.292C178.948 139.798 177.807 139.95 177.807 141.604ZM185.79 152.529C185.785 152.941 187.632 158.334 189.895 164.512L194.007 175.746H198.001C200.758 175.746 201.862 175.359 201.567 174.497C201.331 173.811 199.392 168.418 197.256 162.515L193.373 151.78H189.586C187.502 151.78 185.794 152.118 185.79 152.529ZM201.948 217.835C204.561 218.837 208.107 224.328 207.146 225.883C206.153 227.489 201.834 226.639 200.756 224.627C199.816 222.871 198.856 222.624 193.978 222.879L188.296 223.177L188.001 231.071C187.836 235.484 188.152 239.41 188.717 239.975C190.372 241.629 198.542 241.18 200.598 239.321C201.61 238.405 203.414 237.656 204.607 237.656C207.538 237.656 207.439 240.644 204.399 243.921C199.774 248.911 188.141 248.436 183.931 243.087C179.999 238.089 180.15 224.71 184.193 220.011C187.672 215.967 194.808 215.093 201.948 217.835ZM120.345 230.916C123.015 238.742 125.41 245.74 125.667 246.466C126.007 247.432 125.22 247.702 122.752 247.465C119.389 247.144 119.347 247.076 115.275 235.393C111.371 224.192 110.298 221.826 109.546 222.761C109.362 222.99 107.285 228.681 104.928 235.409C100.79 247.226 100.547 247.642 97.7708 247.642C95.9928 247.642 94.897 247.116 94.897 246.264C94.897 245.126 96.9557 238.978 104.383 217.935C104.661 217.147 106.791 216.686 110.157 216.686H115.491L120.345 230.916ZM149.837 232.164V247.642H146.841C144.898 247.642 143.844 247.135 143.844 246.203C143.844 244.953 143.485 244.952 141.097 246.197C133.127 250.353 124.884 244.383 124.871 234.446C124.858 225.605 133.523 219.376 140.792 222.999L143.844 224.522V220.604C143.844 216.917 144.02 216.686 146.841 216.686H149.837V232.164ZM243.735 232.164V247.642H240.739H237.742V232.164V216.686H240.739H243.735V232.164ZM251.727 232.164V247.642H248.73H245.733V232.164V216.686H248.73H251.727V232.164ZM315.657 219.183C315.657 221.013 316.19 221.679 317.655 221.679C319.272 221.679 319.653 222.345 319.653 225.174C319.653 228.003 319.272 228.669 317.655 228.669C315.879 228.669 315.657 229.335 315.657 234.66C315.657 239.986 315.879 240.652 317.655 240.652C319.285 240.652 319.653 241.318 319.653 244.271C319.653 247.822 319.591 247.879 316.409 247.243C310.014 245.964 309.204 244.088 308.815 229.641L308.464 216.686H312.061C315.231 216.686 315.657 216.982 315.657 219.183ZM171.347 224.706C174.568 227.731 174.612 230.666 171.436 230.666C170.13 230.666 168.483 229.97 167.777 229.118C166.343 227.393 158.196 227.436 158.507 229.168C158.606 229.718 161.4 230.886 164.717 231.765C172.408 233.802 173.811 235.015 173.811 239.62C173.811 245.202 171.106 247.142 163.323 247.142C156.28 247.142 152.834 245.123 152.834 240.996C152.834 238.211 156.078 237.76 158.524 240.205C160.591 242.271 167.183 241.777 167.61 239.524C167.846 238.278 166.797 237.73 163.123 237.179C154.799 235.932 152.873 234.28 152.849 228.371C152.836 225.052 153.24 224.395 156.081 223.113C160.73 221.013 168.25 221.798 171.347 224.706ZM228.206 223.093C230.069 223.872 232.354 225.669 233.285 227.088C235.298 230.16 235.62 238.195 233.861 241.455C232.057 244.797 226.826 247.634 222.458 247.638C214.565 247.646 209.772 242.657 209.772 234.433C209.772 224.787 218.867 219.193 228.206 223.093ZM272.007 222.745C276.458 223.98 279.687 228.461 279.692 233.412L279.696 236.658H270.207C264.987 236.658 260.717 237.075 260.717 237.585C260.717 241.162 267.696 242.882 271.264 240.184C273.907 238.186 278.697 238.195 278.697 240.197C278.697 244.672 270.29 248.535 263.374 247.238C256.857 246.016 252.757 238.085 254.758 230.575C256.688 223.333 263.305 220.329 272.007 222.745ZM298.537 222.3C302.102 223.013 306.667 226.843 306.667 229.12C306.667 231.126 301.878 231.136 299.234 229.136C294.542 225.59 287.688 228.869 287.688 234.66C287.688 240.452 294.542 243.731 299.234 240.184C301.876 238.186 306.667 238.195 306.667 240.197C306.667 242.708 302.169 246.459 298.288 247.187C289.753 248.788 283.455 245.122 282.225 237.838C280.337 226.667 287.282 220.051 298.537 222.3ZM338.914 223.039C343.564 225.006 345.793 227.984 346.356 232.981C347.391 242.153 341.123 248.407 331.936 247.372C329.256 247.069 326.574 245.986 325.114 244.615C318.444 238.351 320.008 226.598 327.969 223.136C332.034 221.369 334.906 221.344 338.914 223.039ZM354.615 222.653C354.615 223.286 355.512 223.286 357.177 222.653C361.064 221.176 361.607 221.424 361.607 224.675C361.607 226.968 361.156 227.671 359.68 227.671C355.761 227.671 354.615 230.284 354.615 239.225V247.642H351.618H348.621V234.66V221.679H351.618C353.266 221.679 354.615 222.118 354.615 222.653ZM133.079 229.225C129.792 231.526 129.953 238.016 133.351 240.241C136.31 242.18 142.323 241.454 143.247 239.045C144.371 236.119 143.844 230.809 142.275 229.239C140.269 227.234 135.93 227.227 133.079 229.225ZM217.986 229.225C214.865 231.411 214.865 237.91 217.986 240.096C220.322 241.731 224.497 242.126 226.354 240.886C228.515 239.444 229.878 235.52 229.236 232.596C228.183 227.803 222.463 226.09 217.986 229.225ZM262.465 228.749C259.209 230.645 260.694 231.665 266.71 231.665C272.79 231.665 274.278 230.58 270.772 228.704C268.344 227.405 264.74 227.425 262.465 228.749ZM328.643 229.668C327.533 230.777 326.645 232.996 326.645 234.66C326.645 236.325 327.533 238.544 328.643 239.653C329.753 240.763 331.973 241.65 333.638 241.65C335.303 241.65 337.523 240.763 338.632 239.653C339.742 238.544 340.63 236.325 340.63 234.66C340.63 232.996 339.742 230.777 338.632 229.668C337.523 228.558 335.303 227.671 333.638 227.671C331.973 227.671 329.753 228.558 328.643 229.668Z" fill="#24303F"/>
</g>
<defs>
<clipPath id="clip0_4_6173">
<rect width="460" height="345" fill="white"/>
</clipPath>
</defs>
</svg>
